# File created by Blade
# Date/Time:  Mon Sep 29 17:58:21 2014
# Frame Rate: 120.000 fps
#------------------------------------------------------
:FULLY-SPECIFIED
:DEGREES
847
root 0.058482 11.273295 -7.395118 40.975076 3.049095 -0.288442
Spine 47.976664 6.827181 1.710571
Head 44.420014 -13.481600 -2.442413
LeftShoulder 16.095867 -19.959547 22.466520
LeftArm 39.237837 24.425941 -23.079247
LeftForeArm 62.418105 -0.000000 81.260015
LeftHand -37.806927 -0.000000 46.698865
LeftHandThumb1 -26.253704 0.000000 33.147579
RightShoulder 4.176946 43.406543 -29.278007
RightArm 19.317637 -48.556547 40.792343
RightForeArm -55.491339 -0.000000 80.814160
RightHand -7.007589 -0.000000 -28.735922
RightHandThumb1 -24.326973 -0.000000 -32.862282
LeftUpLeg -136.209113 45.017162 -11.073071
LeftLeg 134.220676 -0.000000 -0.000000
LeftFoot -32.079736 -16.820406 -20.613531
LeftToeBase 5.678881 -0.000000 -0.000000
RightUpLeg -130.734971 -37.817329 2.472318
RightLeg 135.357061 -0.000000 -0.000000
RightFoot -35.077072 2.457637 19.429503
RightToeBase 2.830905 -0.000000 -0.000000
848
root 0.056719 11.269995 -7.394647 40.936796 3.040076 -0.285598
Spine 48.000615 6.828868 1.684856
Head 44.379803 -13.435854 -2.447606
LeftShoulder 16.109669 -19.985544 22.456580
LeftArm 39.203258 24.454206 -23.046718
LeftForeArm 62.388044 -0.000000 81.269353
LeftHand -37.802849 -0.000000 46.715750
LeftHandThumb1 -26.253704 0.000000 33.147579
RightShoulder 4.206532 43.477724 -29.258519
RightArm 19.310216 -48.631861 40.801878
RightForeArm -55.452738 -0.000000 80.777301
RightHand -6.980474 -0.000000 -28.777259
RightHandThumb1 -24.326973 -0.000000 -32.862282
LeftUpLeg -136.175709 45.037535 -11.054133
LeftLeg 134.224737 -0.000000 -0.000000
LeftFoot -32.070137 -16.820560 -20.605520
LeftToeBase 5.685771 -0.000000 -0.000000
RightUpLeg -130.680660 -37.800561 2.409906
RightLeg 135.372916 -0.000000 -0.000000
RightFoot -35.087049 2.428505 19.427627
RightToeBase 2.815710 -0.000000 -0.000000
849
root 0.057020 11.262200 -7.399949 40.988198 3.091273 -0.265428
Spine 47.873707 6.755287 1.688913
Head 44.427494 -13.386928 -2.533151
LeftShoulder 16.112836 -20.012229 22.403247
LeftArm 39.190978 24.559575 -23.029639
LeftForeArm 62.355244 -0.000000 81.269584
LeftHand -37.763970 -0.000000 46.689891
LeftHandThumb1 -26.253704 0.000000 33.147579
RightShoulder 4.261952 43.561639 -29.262889
RightArm 19.193869 -48.753527 40.942128
RightForeArm -55.457606 -0.000000 80.733155
RightHand -6.965312 0.000000 -28.860775
RightHandThumb1 -24.326973 -0.000000 -32.862282
LeftUpLeg -136.258408 44.960123 -11.062615
LeftLeg 134.234204 -0.000000 -0.000000
LeftFoot -32.064655 -16.816927 -20.633146
LeftToeBase 5.669019 -0.000000 -0.000000
RightUpLeg -130.811237 -37.836095 2.496000
RightLeg 135.396848 -0.000000 -0.000000
RightFoot -35.030164 2.378670 19.457607
RightToeBase 2.638409 -0.000000 -0.000000
850
root 0.054201 11.262599 -7.395659 40.950203 3.067114 -0.263276
Spine 47.904578 6.741369 1.623043
Head 44.407336 -13.282719 -2.562430
LeftShoulder 16.081613 -20.008596 22.350502
LeftArm 39.192424 24.578040 -22.909541
LeftForeArm 62.303439 -0.000000 81.272973
LeftHand -37.758876 0.000000 46.669200
LeftHandThumb1 -26.253704 0.000000 33.147579
RightShoulder 4.340916 43.796356 -29.243817
RightArm 18.989198 -48.910798 41.167002
RightForeArm -55.471370 -0.000000 80.673889
RightHand -6.997066 -0.000000 -28.873483
RightHandThumb1 -24.326973 -0.000000 -32.862282
LeftUpLeg -136.202475 45.003367 -11.051206
LeftLeg 134.234299 -0.000000 -0.000000
LeftFoot -32.076533 -16.819212 -20.627178
LeftToeBase 5.724613 -0.000000 -0.000000
RightUpLeg -130.727317 -37.825167 2.416736
RightLeg 135.397505 -0.000000 -0.000000
RightFoot -35.084824 2.358253 19.421835
RightToeBase 2.780226 -0.000000 -0.000000
851
root 0.050685 11.259996 -7.393654 40.918937 3.033449 -0.272460
Spine 47.916358 6.780760 1.575751
Head 44.386280 -13.243162 -2.536631
LeftShoulder 16.074857 -20.026584 22.323189
LeftArm 39.252491 24.636069 -22.767569
LeftForeArm 62.210410 -0.000000 81.229457
LeftHand -37.792192 -0.000000 46.860044
LeftHandThumb1 -26.253704 0.000000 33.147579
RightShoulder 4.390155 43.931071 -29.207316
RightArm 18.854447 -49.010112 41.307422
RightForeArm -55.463176 -0.000000 80.621382
RightHand -6.944806 0.000000 -28.944822
RightHandThumb1 -24.326973 -0.000000 -32.862282
LeftUpLeg -136.187024 45.066578 -11.057220
LeftLeg 134.240832 -0.000000 -0.000000
LeftFoot -32.058180 -16.824909 -20.608147
LeftToeBase 5.617035 -0.000000 -0.000000
RightUpLeg -130.693141 -37.789349 2.363622
RightLeg 135.403272 -0.000000 -0.000000
RightFoot -35.079814 2.346906 19.408769
RightToeBase 2.799082 -0.000000 -0.000000
852
root 0.048734 11.256718 -7.393717 40.855135 3.027140 -0.278531
Spine 47.987897 6.858874 1.598183
Head 44.291123 -13.335011 -2.408988
LeftShoulder 16.133484 -20.128949 22.352399
LeftArm 39.246479 24.687806 -22.776635
LeftForeArm 62.174757 -0.000000 81.226072
LeftHand -37.794558 -0.000000 46.761388
LeftHandThumb1 -26.253704 0.000000 33.147579
RightShoulder 4.358607 43.872674 -29.175552
RightArm 18.879410 -48.966356 41.225458
RightForeArm -55.440513 -0.000000 80.640156
RightHand -6.968915 0.000000 -28.954144
RightHandThumb1 -24.326973 -0.000000 -32.862282
LeftUpLeg -136.121945 45.098555 -11.006047
LeftLeg 134.246572 -0.000000 -0.000000
LeftFoot -32.063215 -16.813640 -20.586202
LeftToeBase 5.682058 -0.000000 -0.000000
RightUpLeg -130.614872 -37.779419 2.303282
RightLeg 135.413758 -0.000000 -0.000000
RightFoot -35.084363 2.352486 19.406469
RightToeBase 2.773212 -0.000000 -0.000000
853
root 0.047870 11.252913 -7.394772 40.844517 3.032443 -0.276233
Spine 47.968088 6.844484 1.581073
Head 44.275825 -13.312538 -2.418295
LeftShoulder 16.144422 -20.147746 22.330010
LeftArm 39.183544 24.710264 -22.806576
LeftForeArm 62.192922 0.000000 81.248202
LeftHand -37.724441 -0.000000 46.703712
LeftHandThumb1 -26.253704 0.000000 33.147579
RightShoulder 4.390924 43.912115 -29.145292
RightArm 18.871943 -49.019553 41.233706
RightForeArm -55.443771 -0.000000 80.615132
RightHand -6.988882 -0.000000 -28.970906
RightHandThumb1 -24.326973 -0.000000 -32.862282
LeftUpLeg -136.124815 45.102737 -10.995010
LeftLeg 134.253832 -0.000000 -0.000000
LeftFoot -32.043030 -16.834856 -20.602468
LeftToeBase 5.700711 -0.000000 -0.000000
RightUpLeg -130.615967 -37.778067 2.306667
RightLeg 135.434919 -0.000000 -0.000000
RightFoot -35.111534 2.360073 19.458712
RightToeBase 2.829119 -0.000000 -0.000000
854
root 0.050961 11.244982 -7.405880 40.956162 3.114969 -0.241495
Spine 47.760490 6.744282 1.619744
Head 44.359678 -13.282201 -2.523662
LeftShoulder 16.157925 -20.159829 22.264743
LeftArm 39.191124 24.817996 -22.819007
LeftForeArm 62.177650 -0.000000 81.244342
LeftHand -37.731739 -0.000000 46.666838
LeftHandThumb1 -26.253704 0.000000 33.147579
RightShoulder 4.381208 43.907043 -29.159930
RightArm 18.871973 -49.111878 41.263874
RightForeArm -55.457889 -0.000000 80.596745
RightHand -7.016538 -0.000000 -28.970201
RightHandThumb1 -24.326973 -0.000000 -32.862282
LeftUpLeg -136.293875 44.952832 -11.045354
LeftLeg 134.257547 -0.000000 -0.000000
LeftFoot -32.043916 -16.799637 -20.623779
LeftToeBase 5.764524 -0.000000 -0.000000
RightUpLeg -130.831869 -37.859355 2.450490
RightLeg 135.446465 -0.000000 -0.000000
RightFoot -35.064836 2.351236 19.529695
RightToeBase 2.751285 -0.000000 -0.000000
855
root 0.052628 11.241192 -7.411040 40.992411 3.143314 -0.221127
Spine 47.675370 6.682376 1.613391
Head 44.362877 -13.226176 -2.614273
LeftShoulder 16.155439 -20.145493 22.202955
LeftArm 39.189163 24.851732 -22.762620
LeftForeArm 62.120318 0.000000 81.261729
LeftHand -37.673925 0.000000 46.643508
LeftHandThumb1 -26.253704 0.000000 33.147579
RightShoulder 4.431054 43.955945 -29.161778
RightArm 18.772020 -49.156749 41.376251
RightForeArm -55.466618 -0.000000 80.580618
RightHand -6.996807 0.000000 -28.981011
RightHandThumb1 -24.326973 -0.000000 -32.862282
LeftUpLeg -136.357317 44.889781 -11.073828
LeftLeg 134.261348 -0.000000 -0.000000
LeftFoot -32.052685 -16.773381 -20.627503
LeftToeBase 5.751052 -0.000000 -0.000000
RightUpLeg -130.871367 -37.915524 2.455088
RightLeg 135.442789 -0.000000 -0.000000
RightFoot -35.085785 2.363701 19.451115
RightToeBase 2.812608 -0.000000 -0.000000
856
root 0.051897 11.238564 -7.413496 40.996210 3.152302 -0.215765
Spine 47.644710 6.668448 1.603314
Head 44.338978 -13.193622 -2.627270
LeftShoulder 16.157060 -20.157548 22.177351
LeftArm 39.185457 24.880795 -22.732327
LeftForeArm 62.075309 0.000000 81.267952
LeftHand -37.645741 -0.000000 46.587970
LeftHandThumb1 -26.253704 0.000000 33.147579
RightShoulder 4.443662 44.004858 -29.149276
RightArm 18.739083 -49.207677 41.412232
RightForeArm -55.418662 -0.000000 80.567616
RightHand -7.018917 -0.000000 -28.945112
RightHandThumb1 -24.326973 -0.000000 -32.862282
LeftUpLeg -136.376069 44.875349 -11.079974
LeftLeg 134.260419 -0.000000 -0.000000
LeftFoot -32.040657 -16.772497 -20.631657
LeftToeBase 5.678329 -0.000000 -0.000000
RightUpLeg -130.881726 -37.926028 2.454739
RightLeg 135.455883 -0.000000 -0.000000
RightFoot -35.088270 2.389141 19.440941
RightToeBase 2.803732 -0.000000 -0.000000
